<mxfile host="app.diagrams.net" modified="2022-02-13T18:40:24.677Z" agent="5.0 (Windows NT 10.0; Win64; x64) AppleWebKit/537.36 (KHTML, like Gecko) Chrome/98.0.4758.82 Safari/537.36" etag="KKyKYN8Xhivzg4hqwbo5" version="16.5.6" type="github">
  <diagram id="Z9Faffj7i-ukGWr66sX4" name="Page-1">
    <mxGraphModel dx="1292" dy="657" grid="0" gridSize="10" guides="1" tooltips="1" connect="1" arrows="1" fold="1" page="1" pageScale="1" pageWidth="827" pageHeight="1169" math="0" shadow="0">
      <root>
        <mxCell id="0" />
        <mxCell id="1" parent="0" />
        <mxCell id="MF9ZLf0BZo5JY9_R4jr4-1" value="&lt;&lt;abstract&gt;&gt;&#xa;CommonRepository" style="swimlane;fontStyle=1;align=center;verticalAlign=top;childLayout=stackLayout;horizontal=1;startSize=41;horizontalStack=0;resizeParent=1;resizeParentMax=0;resizeLast=0;collapsible=1;marginBottom=0;" vertex="1" parent="1">
          <mxGeometry x="140" y="242" width="160" height="109" as="geometry" />
        </mxCell>
        <mxCell id="MF9ZLf0BZo5JY9_R4jr4-2" value="+ Connection: connection" style="text;strokeColor=none;fillColor=none;align=left;verticalAlign=top;spacingLeft=4;spacingRight=4;overflow=hidden;rotatable=0;points=[[0,0.5],[1,0.5]];portConstraint=eastwest;" vertex="1" parent="MF9ZLf0BZo5JY9_R4jr4-1">
          <mxGeometry y="41" width="160" height="26" as="geometry" />
        </mxCell>
        <mxCell id="MF9ZLf0BZo5JY9_R4jr4-3" value="" style="line;strokeWidth=1;fillColor=none;align=left;verticalAlign=middle;spacingTop=-1;spacingLeft=3;spacingRight=3;rotatable=0;labelPosition=right;points=[];portConstraint=eastwest;" vertex="1" parent="MF9ZLf0BZo5JY9_R4jr4-1">
          <mxGeometry y="67" width="160" height="42" as="geometry" />
        </mxCell>
        <mxCell id="MF9ZLf0BZo5JY9_R4jr4-24" value="CustomerRepository" style="swimlane;fontStyle=1;align=center;verticalAlign=top;childLayout=stackLayout;horizontal=1;startSize=26;horizontalStack=0;resizeParent=1;resizeParentMax=0;resizeLast=0;collapsible=1;marginBottom=0;" vertex="1" parent="1">
          <mxGeometry x="354" y="418" width="315" height="119" as="geometry" />
        </mxCell>
        <mxCell id="MF9ZLf0BZo5JY9_R4jr4-25" value="-" style="text;strokeColor=none;fillColor=none;align=left;verticalAlign=top;spacingLeft=4;spacingRight=4;overflow=hidden;rotatable=0;points=[[0,0.5],[1,0.5]];portConstraint=eastwest;" vertex="1" parent="MF9ZLf0BZo5JY9_R4jr4-24">
          <mxGeometry y="26" width="315" height="26" as="geometry" />
        </mxCell>
        <mxCell id="MF9ZLf0BZo5JY9_R4jr4-26" value="" style="line;strokeWidth=1;fillColor=none;align=left;verticalAlign=middle;spacingTop=-1;spacingLeft=3;spacingRight=3;rotatable=0;labelPosition=right;points=[];portConstraint=eastwest;" vertex="1" parent="MF9ZLf0BZo5JY9_R4jr4-24">
          <mxGeometry y="52" width="315" height="8" as="geometry" />
        </mxCell>
        <mxCell id="MF9ZLf0BZo5JY9_R4jr4-27" value="authenticateCustomer(email, password: String): int&#xa;createCustomer(name, email, pass, address: String): int&#xa;constructCustomerObject(id: int): Customer&#xa;" style="text;strokeColor=none;fillColor=none;align=left;verticalAlign=top;spacingLeft=4;spacingRight=4;overflow=hidden;rotatable=0;points=[[0,0.5],[1,0.5]];portConstraint=eastwest;" vertex="1" parent="MF9ZLf0BZo5JY9_R4jr4-24">
          <mxGeometry y="60" width="315" height="59" as="geometry" />
        </mxCell>
        <mxCell id="MF9ZLf0BZo5JY9_R4jr4-28" value="AdminRepository" style="swimlane;fontStyle=1;align=center;verticalAlign=top;childLayout=stackLayout;horizontal=1;startSize=26;horizontalStack=0;resizeParent=1;resizeParentMax=0;resizeLast=0;collapsible=1;marginBottom=0;" vertex="1" parent="1">
          <mxGeometry x="30" y="415" width="272" height="103" as="geometry" />
        </mxCell>
        <mxCell id="MF9ZLf0BZo5JY9_R4jr4-29" value="-" style="text;strokeColor=none;fillColor=none;align=left;verticalAlign=top;spacingLeft=4;spacingRight=4;overflow=hidden;rotatable=0;points=[[0,0.5],[1,0.5]];portConstraint=eastwest;" vertex="1" parent="MF9ZLf0BZo5JY9_R4jr4-28">
          <mxGeometry y="26" width="272" height="26" as="geometry" />
        </mxCell>
        <mxCell id="MF9ZLf0BZo5JY9_R4jr4-30" value="" style="line;strokeWidth=1;fillColor=none;align=left;verticalAlign=middle;spacingTop=-1;spacingLeft=3;spacingRight=3;rotatable=0;labelPosition=right;points=[];portConstraint=eastwest;" vertex="1" parent="MF9ZLf0BZo5JY9_R4jr4-28">
          <mxGeometry y="52" width="272" height="8" as="geometry" />
        </mxCell>
        <mxCell id="MF9ZLf0BZo5JY9_R4jr4-31" value="authenticateAdmin(email, password: String): int&#xa;constructAdminObject(id: int): Admin" style="text;strokeColor=none;fillColor=none;align=left;verticalAlign=top;spacingLeft=4;spacingRight=4;overflow=hidden;rotatable=0;points=[[0,0.5],[1,0.5]];portConstraint=eastwest;" vertex="1" parent="MF9ZLf0BZo5JY9_R4jr4-28">
          <mxGeometry y="60" width="272" height="43" as="geometry" />
        </mxCell>
        <mxCell id="MF9ZLf0BZo5JY9_R4jr4-33" value="DatabaseConfig" style="swimlane;fontStyle=1;align=center;verticalAlign=top;childLayout=stackLayout;horizontal=1;startSize=26;horizontalStack=0;resizeParent=1;resizeParentMax=0;resizeLast=0;collapsible=1;marginBottom=0;" vertex="1" parent="1">
          <mxGeometry x="687" y="418" width="160" height="116" as="geometry" />
        </mxCell>
        <mxCell id="MF9ZLf0BZo5JY9_R4jr4-34" value="DB_URL: String&#xa;USER: String&#xa;PASSWORD: String" style="text;strokeColor=none;fillColor=none;align=left;verticalAlign=top;spacingLeft=4;spacingRight=4;overflow=hidden;rotatable=0;points=[[0,0.5],[1,0.5]];portConstraint=eastwest;" vertex="1" parent="MF9ZLf0BZo5JY9_R4jr4-33">
          <mxGeometry y="26" width="160" height="49" as="geometry" />
        </mxCell>
        <mxCell id="MF9ZLf0BZo5JY9_R4jr4-35" value="" style="line;strokeWidth=1;fillColor=none;align=left;verticalAlign=middle;spacingTop=-1;spacingLeft=3;spacingRight=3;rotatable=0;labelPosition=right;points=[];portConstraint=eastwest;" vertex="1" parent="MF9ZLf0BZo5JY9_R4jr4-33">
          <mxGeometry y="75" width="160" height="41" as="geometry" />
        </mxCell>
        <mxCell id="MF9ZLf0BZo5JY9_R4jr4-37" value="ProductRepository" style="swimlane;fontStyle=1;align=center;verticalAlign=top;childLayout=stackLayout;horizontal=1;startSize=26;horizontalStack=0;resizeParent=1;resizeParentMax=0;resizeLast=0;collapsible=1;marginBottom=0;" vertex="1" parent="1">
          <mxGeometry x="383" y="142" width="513" height="208" as="geometry" />
        </mxCell>
        <mxCell id="MF9ZLf0BZo5JY9_R4jr4-38" value="-" style="text;strokeColor=none;fillColor=none;align=left;verticalAlign=top;spacingLeft=4;spacingRight=4;overflow=hidden;rotatable=0;points=[[0,0.5],[1,0.5]];portConstraint=eastwest;" vertex="1" parent="MF9ZLf0BZo5JY9_R4jr4-37">
          <mxGeometry y="26" width="513" height="26" as="geometry" />
        </mxCell>
        <mxCell id="MF9ZLf0BZo5JY9_R4jr4-39" value="" style="line;strokeWidth=1;fillColor=none;align=left;verticalAlign=middle;spacingTop=-1;spacingLeft=3;spacingRight=3;rotatable=0;labelPosition=right;points=[];portConstraint=eastwest;" vertex="1" parent="MF9ZLf0BZo5JY9_R4jr4-37">
          <mxGeometry y="52" width="513" height="8" as="geometry" />
        </mxCell>
        <mxCell id="MF9ZLf0BZo5JY9_R4jr4-40" value="createNewCategory(category: String)&#xa;createNewManufacturer(manufacturer: String)&#xa;listAvailableCategiories: Map&lt;Integer, String&gt;&#xa;listAvailableManufacturers: Map&lt;Integer, String&gt;&#xa;addProduct(product: Product, manufacturerId: int, categoryId: int): int&#xa;listproductsByZeroStock(): List&lt;Product&gt;&#xa;listproductsByCategoryId(id: int): List&lt;Product&gt;&#xa;listProductsByOneWhere(whereColumn: String, condition: int, isEqual: bool): List&lt;Product&gt;&#xa;deleteProduct(id: int)&#xa;modifyStock(product: Product, int quantity)&#xa;&#xa;" style="text;strokeColor=none;fillColor=none;align=left;verticalAlign=top;spacingLeft=4;spacingRight=4;overflow=hidden;rotatable=0;points=[[0,0.5],[1,0.5]];portConstraint=eastwest;" vertex="1" parent="MF9ZLf0BZo5JY9_R4jr4-37">
          <mxGeometry y="60" width="513" height="148" as="geometry" />
        </mxCell>
      </root>
    </mxGraphModel>
  </diagram>
</mxfile>
